# xmcd
#
# Track frame offsets:
#	150
#	17615
#	33351
#	52037
#	71732
#	90388
#	107400
#	125000
#
# Disc length: 1840 seconds
#
# Revision: 0
# Processed by: cddbd v1.5.2PL0 Copyright (c) Steve Scherf et al.
# Submitted via: EasyCDDAExtractor 15.3.0.1
#
DISCID=62072e08
DTITLE=Melina Leon - No Seas Cobarde...
DYEAR=2009
DGENRE=Latin
TTITLE0=Ya Fuiste Para Mi
TTITLE1=Todavia Duele
TTITLE2=Volver A Verte
TTITLE3=Cosas De Locos
TTITLE4=Bajo Tu Sombra
TTITLE5=Amando A Solas
TTITLE6=Sin Miedo A Estar Sola
TTITLE7=No Seas Cobarde
EXTD=
EXTT0=
EXTT1=
EXTT2=
EXTT3=
EXTT4=
EXTT5=
EXTT6=
EXTT7=
PLAYORDER=
